<?xml version="1.0" encoding="UTF-8" standalone="no"?>
<!-- Created with Inkscape (http://www.inkscape.org/) -->

<svg
   width="64"
   height="32"
   viewBox="0 0 16.933333 8.4666671"
   version="1.1"
   id="svg5"
   inkscape:version="1.1.1 (3bf5ae0d25, 2021-09-20)"
   sodipodi:docname="search.svg"
   xmlns:inkscape="http://www.inkscape.org/namespaces/inkscape"
   xmlns:sodipodi="http://sodipodi.sourceforge.net/DTD/sodipodi-0.dtd"
   xmlns="http://www.w3.org/2000/svg"
   xmlns:svg="http://www.w3.org/2000/svg">
  <sodipodi:namedview
     id="namedview7"
     pagecolor="#00ffff"
     bordercolor="#666666"
     borderopacity="1.0"
     inkscape:pageshadow="2"
     inkscape:pageopacity="1"
     inkscape:pagecheckerboard="true"
     inkscape:document-units="mm"
     showgrid="false"
     units="px"
     inkscape:zoom="5.6568545"
     inkscape:cx="38.890871"
     inkscape:cy="1.8561552"
     inkscape:window-width="1920"
     inkscape:window-height="1017"
     inkscape:window-x="-8"
     inkscape:window-y="-8"
     inkscape:window-maximized="1"
     inkscape:current-layer="layer1" />
  <defs
     id="defs2" />
  <g
     inkscape:label="Layer 1"
     inkscape:groupmode="layer"
     id="layer1">
    <path
       id="path1110"
       style="fill:none;stroke:#ffffff;stroke-width:0.4;stroke-linecap:round;stroke-linejoin:round"
       d="M 1.6132093,4.0097044 1.1461256,2.2665248 2.8893053,2.7336084"
       sodipodi:nodetypes="ccc"
       inkscape:transform-center-x="-0.13483532"
       inkscape:transform-center-y="0.13483543" />
    <path
       id="path1110-7"
       style="fill:none;stroke:#ffffff;stroke-width:0.4;stroke-linecap:round;stroke-linejoin:round"
       d="M 7.7711983,2.3596763 7.3041146,0.61649644 6.0280185,1.8925927"
       sodipodi:nodetypes="ccc"
       inkscape:transform-center-x="0.13483539"
       inkscape:transform-center-y="-0.13483544" />
    <path
       id="path5138"
       style="fill:none;stroke:#ffffff;stroke-width:0.4;stroke-linecap:round;stroke-linejoin:round"
       d="M 2.8893053,2.7336084 C 3.3378766,2.4782699 3.8495183,2.266444 4.4061931,2.1172836 4.9628679,1.9681229 5.5118754,1.8957483 6.0280189,1.8925925 m 1.7431794,0.4670838 c 0.079069,0.091071 0.3020852,0.3420989 0.4332687,0.4613968 M 8.2682636,6.4698009 3.0948237,7.85602 C 2.2443872,7.6005943 1.5375932,6.9360165 1.267954,6.1469136 1.0346143,5.464041 1.5214466,4.4833219 1.6132092,4.0097045"
       sodipodi:nodetypes="cscccccac" />
    <path
       id="path1328-7-4-9"
       style="fill:none;fill-opacity:1;stroke:#ffffff;stroke-width:0.4;stroke-linecap:round;stroke-linejoin:miter;stroke-miterlimit:4;stroke-dasharray:none;stroke-opacity:1"
       d="M 3.1752642,4.9951553 3.0335193,4.4661559 M 4.1917792,4.7227808 4.0500341,4.1937815 M 4.2885258,4.0209281 2.119239,4.6021868 m 1.0560252,0.3929685 c 0.075291,0.280991 0.3638817,0.4478064 0.6445844,0.3725922 0.2807029,-0.075214 0.4472219,-0.3639754 0.3719306,-0.6449667"
       sodipodi:nodetypes="cccccccsc" />
    <path
       id="path1328-7-4-9-1"
       style="fill:none;fill-opacity:1;stroke:#ffffff;stroke-width:0.4;stroke-linecap:round;stroke-linejoin:miter;stroke-miterlimit:4;stroke-dasharray:none;stroke-opacity:1"
       d="M 5.9383624,4.2370581 5.7966175,3.7080587 M 6.9548774,3.9646836 6.8131323,3.4356843 M 7.051624,3.2628309 4.8823372,3.8440896 M 5.9383624,4.2370581 C 6.0136538,4.5180492 6.3022441,4.6848645 6.5829468,4.6096503 6.8636497,4.5344363 7.0301687,4.2456749 6.9548774,3.9646836"
       sodipodi:nodetypes="cccccccsc" />
    <g
       id="g3048"
       transform="translate(-1.8624313,1.5158505)">
      <path
         id="path12221"
         style="fill:none;stroke:#ffffff;stroke-width:0.4;stroke-linecap:round;stroke-linejoin:round;stroke-miterlimit:4;stroke-dasharray:none;stroke-opacity:1"
         d="m 16.434797,3.2463038 a 0.97603602,0.97603603 0 0 0 -1.380324,-2e-7 0.97603602,0.97603603 0 0 0 1e-6,1.3803236 0.97603602,0.97603603 0 0 0 1.380322,-3e-7 0.97603602,0.97603603 0 0 0 1e-6,-1.3803231 z m -1.408218,1.4082174 -0.897786,0.8977852 z" />
      <path
         id="rect2623"
         style="fill:none;fill-opacity:1;stroke:#ffffff;stroke-width:1.51181;stroke-linecap:round;stroke-linejoin:round;stroke-miterlimit:4;stroke-dasharray:none;stroke-opacity:1"
         d="m 39.693359,4.1679688 c -0.636572,0 -1.15039,0.5138177 -1.15039,1.1503906 v 3.4023437 l -0.002,0.78125 0.0015,12.6080239 c 9.1e-5,0.783474 0.632541,1.414062 1.416015,1.414062 h 25.201172 c 0.783474,0 1.414154,-0.630588 1.414063,-1.414062 L 66.572266,9.5019531 C 66.572175,8.7184788 65.941677,8.0878906 65.158203,8.0878906 H 47.767578 V 5.3183594 c 0,-0.6365729 -0.511865,-1.1503906 -1.148437,-1.1503906 z"
         sodipodi:nodetypes="ssccsssssscsss"
         transform="scale(0.26458333)" />
    </g>
    <path
       style="fill:none;stroke:#ffffff;stroke-width:0.4;stroke-linecap:round;stroke-linejoin:miter;stroke-miterlimit:4;stroke-dasharray:none;stroke-opacity:1"
       d="m 4.4274579,6.3528498 c 0,0 0.4116083,0.225231 0.6236227,0.177523 0.2120135,-0.0477 0.2223683,-0.367867 0.4343773,-0.415592 0.2119806,-0.04771 0.4115982,0.225101 0.6235833,0.177401 0.2119871,-0.0477 0.4344167,-0.415469 0.4344167,-0.415469"
       id="path5680"
       sodipodi:nodetypes="csssc" />
  </g>
</svg>
