<?xml version="1.0" encoding="UTF-8" standalone="no"?>
<!-- Created with Inkscape (http://www.inkscape.org/) -->

<svg
   width="32"
   height="80"
   viewBox="0 0 8.4666664 21.166668"
   version="1.1"
   id="svg5"
   inkscape:version="1.1.1 (3bf5ae0d25, 2021-09-20)"
   sodipodi:docname="town_store.svg"
   xmlns:inkscape="http://www.inkscape.org/namespaces/inkscape"
   xmlns:sodipodi="http://sodipodi.sourceforge.net/DTD/sodipodi-0.dtd"
   xmlns="http://www.w3.org/2000/svg"
   xmlns:svg="http://www.w3.org/2000/svg">
  <sodipodi:namedview
     id="namedview7"
     pagecolor="#00ffff"
     bordercolor="#666666"
     borderopacity="1.0"
     inkscape:pageshadow="2"
     inkscape:pageopacity="1"
     inkscape:pagecheckerboard="true"
     inkscape:document-units="mm"
     showgrid="false"
     units="px"
     inkscape:zoom="8"
     inkscape:cx="31.625"
     inkscape:cy="45.1875"
     inkscape:window-width="1920"
     inkscape:window-height="1017"
     inkscape:window-x="-8"
     inkscape:window-y="-8"
     inkscape:window-maximized="1"
     inkscape:current-layer="layer1" />
  <defs
     id="defs2" />
  <g
     inkscape:label="Layer 1"
     inkscape:groupmode="layer"
     id="layer1">
    <g
       id="g25777"
       transform="rotate(-90,10.8881,10.9271)">
      <path
         style="color:#000000;fill:#ffffff;stroke-linecap:round;stroke-linejoin:round;-inkscape-stroke:none;paint-order:stroke fill markers"
         d="m 11.931641,3.546875 c -0.178839,0 -0.34961,0.1471004 -0.34961,0.34375 v 1.0820312 c 0,0.1966497 0.170771,0.3437501 0.34961,0.34375 h 7.96875 C 20.079229,5.3164063 20.25,5.1693059 20.25,4.9726562 V 3.890625 c 0,-0.1966496 -0.170771,-0.34375 -0.349609,-0.34375 z m 0.179687,0.5292969 h 7.609375 v 0.7109375 h -7.609375 z"
         id="rect21384" />
      <path
         style="color:#000000;fill:#ffffff;stroke-linecap:round;stroke-linejoin:round;-inkscape-stroke:none;paint-order:stroke fill markers"
         d="m 12.615234,4.7871094 c -0.18563,0 -0.34375,0.1581181 -0.34375,0.34375 v 3.0683594 a 0.26452644,0.26452644 0 0 0 0.263672,0.265625 h 1.273438 a 0.26452644,0.26452644 0 0 0 0.265625,-0.265625 V 6.9648437 h 0.966797 v 1.2343751 a 0.26452644,0.26452644 0 0 0 0.265625,0.265625 h 3.988281 a 0.26452644,0.26452644 0 0 0 0.263672,-0.265625 V 5.1308594 c 0,-0.1856722 -0.158098,-0.34375 -0.34375,-0.34375 z m 0.185547,0.5292968 h 6.228516 v 2.6191407 h -3.458984 v -1.15625 c 0,-0.1856319 -0.158121,-0.34375 -0.34375,-0.34375 h -1.337891 c -0.185653,0 -0.34375,0.1580778 -0.34375,0.34375 v 1.15625 h -0.744141 z"
         id="path22250" />
    </g>
    <path
       style="color:#000000;fill:#ffffff;stroke-linejoin:round;-inkscape-stroke:none;paint-order:stroke fill markers"
       d="m 1.5820312,10.550781 c -0.1864793,0 -0.3437499,0.157317 -0.34375,0.34375 v 1.923828 c 10e-8,0.186433 0.1572707,0.34375 0.34375,0.34375 h 1.9238282 c 0.1864793,0 0.34375,-0.157317 0.34375,-0.34375 V 12.121094 H 8.1269531 A 0.26452644,0.26452644 0 0 0 8.3535156,11.726563 0.26452644,0.26452644 0 0 0 8.1269531,11.591797 H 3.8496094 v -0.697266 c 0,-0.186433 -0.1572707,-0.34375 -0.34375,-0.34375 z m 0.1855469,0.529297 h 1.5527344 v 1.552735 H 1.7675781 Z"
       id="rect22905" />
    <path
       style="color:#000000;fill:#ffffff;stroke-linejoin:round;-inkscape-stroke:none;paint-order:stroke fill markers"
       d="m 6.5097656,14.617188 c -0.1843807,-1e-6 -0.34375,0.157427 -0.34375,0.341796 v 0.873047 H 5.2558594 c -0.1863587,4.7e-5 -0.3417969,0.157295 -0.3417969,0.34375 v 1.865235 c 0,0.185926 0.15591,0.342945 0.3417969,0.34375 h 0.9101562 v 0.873046 c 0,0.18437 0.157311,0.341797 0.34375,0.341797 h 0.9863281 c 0.186439,0 0.34375,-0.155341 0.34375,-0.341797 v -4.298828 c 0,-0.186455 -0.1593692,-0.341797 -0.34375,-0.341796 z m 0.1855469,0.527343 H 7.3125 v 3.927735 H 6.6953125 V 18.119141 A 0.26452644,0.26452644 0 0 0 6.4296875,17.855469 H 5.4414062 v -1.494141 h 0.9882813 a 0.26452644,0.26452644 0 0 0 0.265625,-0.263672 z"
       id="rect23976" />
    <g
       id="g25767"
       transform="matrix(0,-1.0000346,1,0,0.82925192,21.815355)"
       style="stroke-width:0.999972">
      <path
         style="color:#000000;fill:#ffffff;stroke-linejoin:round;-inkscape-stroke:none;paint-order:stroke fill markers"
         d="m 3.3613281,6.53125 c -0.2913522,0 -0.5332032,0.2418509 -0.5332031,0.5332031 0,0.2913522 0.241851,0.5332031 0.5332031,0.5332031 0.2913522,0 0.5332031,-0.2418509 0.5332032,-0.5332031 0,-0.2913522 -0.2418509,-0.5332031 -0.5332032,-0.5332031 z m 0,0.5292969 c 0.00546,0 0.00391,-0.00156 0.00391,0.00391 0,0.00546 0.00156,0.00586 -0.00391,0.00586 -0.00546,0 -0.00391,-3.948e-4 -0.00391,-0.00586 0,-0.00546 -0.00156,-0.00391 0.00391,-0.00391 z"
         id="path25661" />
      <path
         style="color:#000000;fill:#ffffff;stroke-linejoin:round;-inkscape-stroke:none;paint-order:stroke fill markers"
         d="m 6.0527344,6.53125 c -0.2913523,0 -0.5332032,0.2418509 -0.5332032,0.5332031 10e-8,0.2913522 0.241851,0.5332031 0.5332032,0.5332031 0.2913522,10e-8 0.5332031,-0.2418508 0.5332031,-0.5332031 1e-7,-0.2913523 -0.2418508,-0.5332032 -0.5332031,-0.5332031 z m 0,0.5292969 c 0.00546,0 0.00391,-0.00156 0.00391,0.00391 0,0.00546 0.00156,0.00586 -0.00391,0.00586 -0.00546,0 -0.00391,-3.948e-4 -0.00391,-0.00586 0,-0.00546 -0.00156,-0.00391 0.00391,-0.00391 z"
         id="path25661-5" />
    </g>
  </g>
</svg>
