<?xml version="1.0" encoding="UTF-8" standalone="no"?>
<!-- Created with Inkscape (http://www.inkscape.org/) -->

<svg
   width="32"
   height="80"
   viewBox="0 0 8.4666664 21.166668"
   version="1.1"
   id="svg5"
   inkscape:version="1.1.1 (3bf5ae0d25, 2021-09-20)"
   sodipodi:docname="town_traffic.svg"
   xmlns:inkscape="http://www.inkscape.org/namespaces/inkscape"
   xmlns:sodipodi="http://sodipodi.sourceforge.net/DTD/sodipodi-0.dtd"
   xmlns="http://www.w3.org/2000/svg"
   xmlns:svg="http://www.w3.org/2000/svg">
  <sodipodi:namedview
     id="namedview7"
     pagecolor="#00ffff"
     bordercolor="#666666"
     borderopacity="1.0"
     inkscape:pageshadow="2"
     inkscape:pageopacity="1"
     inkscape:pagecheckerboard="true"
     inkscape:document-units="mm"
     showgrid="false"
     units="px"
     inkscape:zoom="5.6568545"
     inkscape:cx="18.384775"
     inkscape:cy="40.57025"
     inkscape:window-width="1920"
     inkscape:window-height="1017"
     inkscape:window-x="-8"
     inkscape:window-y="-8"
     inkscape:window-maximized="1"
     inkscape:current-layer="g861" />
  <defs
     id="defs2" />
  <g
     inkscape:label="Layer 1"
     inkscape:groupmode="layer"
     id="layer1">
    <g
       id="g851"
       transform="rotate(-90,9.7502056,9.8423999)">
      <g
         id="g861">
        <path
           style="color:#000000;fill:#ffffff;stroke-linejoin:round;-inkscape-stroke:none;paint-order:stroke fill markers"
           d="m 3.2441406,4.953125 a 0.26452644,0.26452644 0 0 0 -0.1855468,0.076172 l -0.080078,0.080078 a 0.26452644,0.26452644 0 0 0 -0.00195,0.00195 L 1.8398437,6.2851562 1.7636719,6.359375 a 0.26452644,0.26452644 0 0 0 -0.078125,0.1894531 v 0.9863281 c 0,0.1864512 0.1572989,0.34375 0.34375,0.34375 h 4.296875 c 0.1864511,0 0.34375,-0.1593854 0.34375,-0.34375 V 6.5488281 a 0.26452644,0.26452644 0 0 0 -0.078125,-0.1875 L 6.515625,6.2832031 5.3789062,5.1113281 A 0.26452644,0.26452644 0 0 0 5.375,5.109375 L 5.296875,5.0292969 a 0.26452644,0.26452644 0 0 0 -0.1875,-0.076172 z m 0.109375,0.5273437 H 5 l 1.1367187,1.1738282 a 0.26452644,0.26452644 0 0 0 0.00195,0.00195 l 0.00195,0.00195 V 7.3515625 H 2.2148438 V 6.6582031 6.65625 a 0.26452644,0.26452644 0 0 0 0.00391,-0.00195 z"
           id="rect23976" />
        <path
           style="color:#000000;fill:#ffffff;stroke-linejoin:round;-inkscape-stroke:none;paint-order:stroke fill markers"
           d="m 2.8320313,7.4003906 c -0.2913549,1e-7 -0.5332032,0.2418435 -0.5332032,0.5332031 10e-8,0.2913596 0.2418484,0.5332031 0.5332032,0.5332032 0.2913548,0 0.533203,-0.2418435 0.5332031,-0.5332032 0,-0.2913596 -0.2418482,-0.5332031 -0.5332031,-0.5332031 z m 0,0.5292969 c 0.00547,0 0.00391,-0.00155 0.00391,0.00391 0,0.00546 0.00157,0.00391 -0.00391,0.00391 -0.00547,0 -0.00391,0.00155 -0.00391,-0.00391 0,-0.00546 -0.00157,-0.00391 0.00391,-0.00391 z"
           id="path25661" />
        <path
           style="color:#000000;fill:#ffffff;stroke-linejoin:round;-inkscape-stroke:none;paint-order:stroke fill markers"
           d="m 5.5234375,7.4003906 c -0.2913549,0 -0.5332032,0.2418435 -0.5332031,0.5332031 0,0.2913597 0.2418482,0.5332032 0.5332031,0.5332032 0.2913548,-1e-7 0.5332031,-0.2418436 0.5332031,-0.5332032 1e-7,-0.2913596 -0.2418482,-0.533203 -0.5332031,-0.5332031 z m 0,0.5292969 c 0.00547,0 0.00391,-0.00155 0.00391,0.00391 0,0.00546 0.00157,0.00391 -0.00391,0.00391 -0.00547,0 -0.00391,0.00155 -0.00391,-0.00391 0,-0.00546 -0.00157,-0.00391 0.00391,-0.00391 z"
           id="path25661-5" />
      </g>
      <g
         id="g866">
        <path
           style="color:#000000;fill:#ffffff;stroke-linecap:round;stroke-linejoin:round;-inkscape-stroke:none;paint-order:stroke fill markers"
           d="M 8.4101563,4.96875 A 0.26449999,0.26449999 0 0 0 8.1464844,5.234375 v 2.3183594 c 1.69e-5,0.1843353 0.1572989,0.34375 0.34375,0.34375 h 4.2968746 c 0.186456,0 0.34375,-0.157311 0.34375,-0.34375 V 6.5644531 c 0,-0.186439 -0.159381,-0.34375 -0.34375,-0.34375 H 11.914063 V 5.3125 c 8.5e-5,-0.186585 -0.157265,-0.3437675 -0.34375,-0.34375 z m 0.265625,0.5292969 H 11.384766 V 6.4863281 A 0.26452644,0.26452644 0 0 0 11.650391,6.75 h 0.951172 V 7.3671875 H 8.6757813 Z"
           id="rect23976-3-3" />
        <path
           style="color:#000000;fill:#ffffff;stroke-linejoin:round;-inkscape-stroke:none;paint-order:stroke fill markers"
           d="m -11.984375,7.4160156 c -0.291354,8e-7 -0.533203,0.241844 -0.533203,0.5332031 0,0.2913591 0.241849,0.5332024 0.533203,0.5332032 0.291355,3e-7 0.533203,-0.2418434 0.533203,-0.5332032 0,-0.2913598 -0.241848,-0.5332034 -0.533203,-0.5332031 z m 0,0.5292969 c 0.0055,0 0.0039,-0.00155 0.0039,0.00391 0,0.00546 0.0016,0.00586 -0.0039,0.00586 -0.0055,0 -0.0039,-4.022e-4 -0.0039,-0.00586 0,-0.00546 -0.0016,-0.00391 0.0039,-0.00391 z"
           id="path25661-9-8"
           transform="scale(-1,1)" />
        <path
           style="color:#000000;fill:#ffffff;stroke-linejoin:round;-inkscape-stroke:none;paint-order:stroke fill markers"
           d="m -9.2929688,7.4160156 c -0.2913548,1e-7 -0.5332031,0.2418435 -0.5332031,0.5332031 1e-7,0.2913596 0.2418484,0.5332031 0.5332031,0.5332032 0.2913548,-1e-7 0.5332031,-0.2418436 0.5332032,-0.5332032 0,-0.2913596 -0.2418483,-0.533203 -0.5332032,-0.5332031 z m 0,0.5292969 c 0.00547,0 0.00391,-0.00155 0.00391,0.00391 0,0.00546 0.00157,0.00586 -0.00391,0.00586 -0.00547,0 -0.00391,-4.022e-4 -0.00391,-0.00586 0,-0.00546 -0.00157,-0.00391 0.00391,-0.00391 z"
           id="path25661-5-7-0"
           transform="scale(-1,1)" />
      </g>
      <g
         id="g874">
        <path
           style="color:#000000;fill:#ffffff;stroke-linecap:round;-inkscape-stroke:none"
           d="M 16.068359,0.76367187 A 0.26449999,0.26449999 0 0 0 15.804688,1.0273437 v 7.1972657 a 0.26449999,0.26449999 0 0 0 0.263671,0.2636719 0.26449999,0.26449999 0 0 0 0.265625,-0.2636719 V 1.0273437 A 0.26449999,0.26449999 0 0 0 16.068359,0.76367187 Z"
           id="path30572" />
        <path
           style="color:#000000;fill:#ffffff;stroke-linecap:round;-inkscape-stroke:none"
           d="m 14.876953,1.7382812 a 0.26449999,0.26449999 0 0 0 -0.263672,0.2636719 0.26449999,0.26449999 0 0 0 0.263672,0.265625 h 1.191406 a 0.26449999,0.26449999 0 0 0 0.265625,-0.265625 0.26449999,0.26449999 0 0 0 -0.265625,-0.2636719 z"
           id="path30572-3" />
        <path
           style="color:#000000;fill:#ffffff;stroke-linejoin:round;-inkscape-stroke:none;paint-order:stroke fill markers"
           d="m 11.582031,1.5136719 c -0.291357,0 -0.533203,0.2418362 -0.533203,0.5332031 0,0.291367 0.241846,0.5332031 0.533203,0.5332031 0.291358,0 0.533203,-0.2418361 0.533203,-0.5332031 0,-0.2913669 -0.241845,-0.5332031 -0.533203,-0.5332031 z m 0,0.5273437 c 0.0055,0 0.0039,4.096e-4 0.0039,0.00586 0,0.00545 0.0016,0.00391 -0.0039,0.00391 -0.0055,-1e-7 -0.0039,0.00154 -0.0039,-0.00391 0,-0.00545 -0.0016,-0.00586 0.0039,-0.00586 z"
           id="path25661-9-8-8" />
        <path
           style="color:#000000;fill:#ffffff;stroke-linejoin:round;-inkscape-stroke:none;paint-order:stroke fill markers"
           d="m 12.775391,1.53125 c -0.291358,0 -0.533204,0.2418361 -0.533203,0.5332031 0,0.291367 0.241845,0.5332031 0.533203,0.5332032 0.291357,-1e-7 0.533203,-0.2418362 0.533203,-0.5332032 0,-0.291367 -0.241846,-0.5332031 -0.533203,-0.5332031 z m 0,0.5273438 c 0.0055,0 0.0039,4.095e-4 0.0039,0.00586 0,0.00545 0.0016,0.00391 -0.0039,0.00391 -0.0055,0 -0.0059,0.00154 -0.0059,-0.00391 0,-0.00545 3.8e-4,-0.00586 0.0059,-0.00586 z"
           id="path25661-9-8-8-8" />
        <path
           style="color:#000000;fill:#ffffff;stroke-linejoin:round;-inkscape-stroke:none;paint-order:stroke fill markers"
           d="m 13.966797,1.5019531 c -0.291358,1e-7 -0.533203,0.2418362 -0.533203,0.5332032 0,0.291367 0.241845,0.533203 0.533203,0.5332031 C 14.258154,2.5683593 14.5,2.3265233 14.5,2.0351563 14.5,1.7437893 14.258154,1.5019532 13.966797,1.5019531 Z m 0,0.5273438 c 0.0055,0 0.0039,4.095e-4 0.0039,0.00586 0,0.00545 0.0016,0.00391 -0.0039,0.00391 -0.0055,0 -0.0039,0.00154 -0.0039,-0.00391 0,-0.00545 -0.0016,-0.00586 0.0039,-0.00586 z"
           id="path25661-9-8-8-8-3" />
        <path
           style="color:#000000;fill:#ffffff;stroke-linecap:round;stroke-linejoin:round;-inkscape-stroke:none;paint-order:stroke fill markers"
           d="m 10.728516,0.79882812 c -0.221246,0 -0.351563,0.19382155 -0.351563,0.36914058 v 1.7324219 c 0,0.1753193 0.130317,0.3710938 0.351563,0.3710938 h 4.042968 c 0.221246,0 0.351563,-0.1957747 0.351563,-0.3710938 V 1.1679687 c 0,-0.17531923 -0.130317,-0.36914058 -0.351563,-0.36914058 z m 0.175781,0.52734378 h 3.689453 v 1.4160156 h -3.689453 z"
           id="rect31162" />
      </g>
    </g>
  </g>
</svg>
