<?xml version="1.0" encoding="UTF-8" standalone="no"?>
<!-- Created with Inkscape (http://www.inkscape.org/) -->

<svg
   width="32"
   height="80"
   viewBox="0 0 8.4666664 21.166668"
   version="1.1"
   id="svg5"
   inkscape:version="1.1.1 (3bf5ae0d25, 2021-09-20)"
   sodipodi:docname="town_store.svg"
   xmlns:inkscape="http://www.inkscape.org/namespaces/inkscape"
   xmlns:sodipodi="http://sodipodi.sourceforge.net/DTD/sodipodi-0.dtd"
   xmlns="http://www.w3.org/2000/svg"
   xmlns:svg="http://www.w3.org/2000/svg">
  <sodipodi:namedview
     id="namedview7"
     pagecolor="#00ffff"
     bordercolor="#666666"
     borderopacity="1.0"
     inkscape:pageshadow="2"
     inkscape:pageopacity="1"
     inkscape:pagecheckerboard="true"
     inkscape:document-units="mm"
     showgrid="false"
     units="mm"
     inkscape:zoom="8"
     inkscape:cx="22.625"
     inkscape:cy="35.3125"
     inkscape:window-width="1920"
     inkscape:window-height="1017"
     inkscape:window-x="-8"
     inkscape:window-y="-8"
     inkscape:window-maximized="1"
     inkscape:current-layer="layer1" />
  <defs
     id="defs2" />
  <g
     inkscape:label="Layer 1"
     inkscape:groupmode="layer"
     id="layer1">
    <g
       id="g969"
       transform="rotate(-90,4.8331181,10.58253)">
      <g
         id="g952">
        <path
           style="color:#000000;fill:#ffffff;stroke-linecap:round;stroke-linejoin:round;-inkscape-stroke:none;paint-order:stroke fill markers"
           d="m 5.5320972,9.2576148 c -0.178839,0 -0.34961,0.1471004 -0.34961,0.34375 v 1.0820312 c 0,0.19665 0.170771,0.34375 0.34961,0.34375 h 7.9687498 c 0.178838,0 0.349609,-0.1471 0.349609,-0.34375 V 9.6013648 c 0,-0.1966496 -0.170771,-0.34375 -0.349609,-0.34375 z m 0.179687,0.5292969 H 13.321159 V 10.497849 H 5.7117842 Z"
           id="rect21384" />
        <path
           style="color:#000000;fill:#ffffff;stroke-linecap:round;stroke-linejoin:round;-inkscape-stroke:none;paint-order:stroke fill markers"
           d="m 6.2156902,10.497849 c -0.18563,0 -0.34375,0.158118 -0.34375,0.34375 v 3.06836 a 0.26452644,0.26452644 0 0 0 0.263672,0.265625 h 1.273438 a 0.26452644,0.26452644 0 0 0 0.265625,-0.265625 v -1.234375 h 0.966797 v 1.234375 a 0.26452644,0.26452644 0 0 0 0.265625,0.265625 h 3.9882808 a 0.26452644,0.26452644 0 0 0 0.263672,-0.265625 v -3.06836 c 0,-0.185672 -0.158098,-0.34375 -0.34375,-0.34375 z m 0.185547,0.529297 h 6.2285158 v 2.619141 H 9.1707692 v -1.15625 c 0,-0.185632 -0.158121,-0.34375 -0.34375,-0.34375 h -1.337891 c -0.185653,0 -0.34375,0.158078 -0.34375,0.34375 v 1.15625 h -0.744141 z"
           id="path22250" />
      </g>
      <path
         style="color:#000000;fill:#ffffff;stroke-linejoin:round;-inkscape-stroke:none;paint-order:stroke fill markers"
         d="m 4.8648672,7.3321618 c 0,-0.1864794 -0.157317,-0.34375 -0.34375,-0.34375 h -1.923828 c -0.186433,0 -0.34375,0.1572706 -0.34375,0.34375 v 1.9238281 c 0,0.1864794 0.157317,0.34375 0.34375,0.34375 h 0.697265 v 4.2773441 a 0.26452644,0.26452644 0 0 0 0.394531,0.226562 0.26452644,0.26452644 0 0 0 0.134766,-0.226562 V 9.5997399 h 0.697266 c 0.186433,0 0.34375,-0.1572706 0.34375,-0.34375 z M 4.3355702,7.5177086 V 9.070443 H 2.7828352 V 7.5177086 Z"
         id="rect22905" />
      <g
         id="g958">
        <path
           style="color:#000000;fill:#ffffff;stroke-linejoin:round;-inkscape-stroke:none;paint-order:stroke fill markers"
           d="m -2.6256258,10.663809 c -0.186444,0 -0.343835,0.157161 -0.34375,0.34375 v 0.908204 h -0.871094 c -0.184385,0 -0.34375,0.157306 -0.34375,0.34375 v 0.986328 c 0,0.186443 0.157307,0.34375 0.34375,0.34375 h 4.296875 c 0.186444,0 0.341797,-0.159365 0.341797,-0.34375 v -0.986328 c 0,-0.184386 -0.157412,-0.34375 -0.341797,-0.34375 h -0.873047 v -0.910157 c -4.7e-5,-0.186363 -0.157306,-0.341797 -0.34375,-0.341797 z m 0.185547,0.527344 h 1.49414 v 0.988281 a 0.26452644,0.26452644 0 0 0 0.265625,0.265625 h 0.951172 v 0.617188 h -3.925781 v -0.617188 h 0.951172 a 0.26452644,0.26452644 0 0 0 0.263672,-0.265625 z"
           id="rect23976" />
        <g
           id="g25767"
           transform="matrix(1.0000346,0,0,1,-6.3997068,6.5789919)"
           style="stroke-width:0.999972">
          <path
             style="color:#000000;fill:#ffffff;stroke-linejoin:round;-inkscape-stroke:none;paint-order:stroke fill markers"
             d="m 3.3613281,6.53125 c -0.2913522,0 -0.5332032,0.2418509 -0.5332031,0.5332031 0,0.2913522 0.241851,0.5332031 0.5332031,0.5332031 0.2913522,0 0.5332031,-0.2418509 0.5332032,-0.5332031 0,-0.2913522 -0.2418509,-0.5332031 -0.5332032,-0.5332031 z m 0,0.5292969 c 0.00546,0 0.00391,-0.00156 0.00391,0.00391 0,0.00546 0.00156,0.00586 -0.00391,0.00586 -0.00546,0 -0.00391,-3.948e-4 -0.00391,-0.00586 0,-0.00546 -0.00156,-0.00391 0.00391,-0.00391 z"
             id="path25661" />
          <path
             style="color:#000000;fill:#ffffff;stroke-linejoin:round;-inkscape-stroke:none;paint-order:stroke fill markers"
             d="m 6.0527344,6.53125 c -0.2913523,0 -0.5332032,0.2418509 -0.5332032,0.5332031 10e-8,0.2913522 0.241851,0.5332031 0.5332032,0.5332031 0.2913522,10e-8 0.5332031,-0.2418508 0.5332031,-0.5332031 1e-7,-0.2913523 -0.2418508,-0.5332032 -0.5332031,-0.5332031 z m 0,0.5292969 c 0.00546,0 0.00391,-0.00156 0.00391,0.00391 0,0.00546 0.00156,0.00586 -0.00391,0.00586 -0.00546,0 -0.00391,-3.948e-4 -0.00391,-0.00586 0,-0.00546 -0.00156,-0.00391 0.00391,-0.00391 z"
             id="path25661-5" />
        </g>
      </g>
    </g>
  </g>
</svg>
